<?xml version="1.0" standalone="no"?>
<svg xmlns:xlink="http://www.w3.org/1999/xlink" id="wave" style="transform:rotate(180deg); transition: 0.3s" viewBox="0 0 1440 170" version="1.1" xmlns="http://www.w3.org/2000/svg"><defs><linearGradient id="sw-gradient-0" x1="0" x2="0" y1="1" y2="0"><stop stop-color="rgba(117, 191, 171, 1)" offset="0%"/><stop stop-color="rgba(117, 191, 171, 1)" offset="100%"/></linearGradient></defs><path style="transform:translate(0, 0px); opacity:1" fill="url(#sw-gradient-0)" d="M0,119L48,99.2C96,79,192,40,288,45.3C384,51,480,102,576,116.2C672,130,768,108,864,102C960,96,1056,108,1152,99.2C1248,91,1344,62,1440,68C1536,74,1632,113,1728,133.2C1824,153,1920,153,2016,130.3C2112,108,2208,62,2304,36.8C2400,11,2496,6,2592,22.7C2688,40,2784,79,2880,99.2C2976,119,3072,119,3168,124.7C3264,130,3360,142,3456,141.7C3552,142,3648,130,3744,130.3C3840,130,3936,142,4032,127.5C4128,113,4224,74,4320,65.2C4416,57,4512,79,4608,93.5C4704,108,4800,113,4896,99.2C4992,85,5088,51,5184,45.3C5280,40,5376,62,5472,65.2C5568,68,5664,51,5760,42.5C5856,34,5952,34,6048,53.8C6144,74,6240,113,6336,124.7C6432,136,6528,119,6624,113.3C6720,108,6816,113,6864,116.2L6912,119L6912,170L6864,170C6816,170,6720,170,6624,170C6528,170,6432,170,6336,170C6240,170,6144,170,6048,170C5952,170,5856,170,5760,170C5664,170,5568,170,5472,170C5376,170,5280,170,5184,170C5088,170,4992,170,4896,170C4800,170,4704,170,4608,170C4512,170,4416,170,4320,170C4224,170,4128,170,4032,170C3936,170,3840,170,3744,170C3648,170,3552,170,3456,170C3360,170,3264,170,3168,170C3072,170,2976,170,2880,170C2784,170,2688,170,2592,170C2496,170,2400,170,2304,170C2208,170,2112,170,2016,170C1920,170,1824,170,1728,170C1632,170,1536,170,1440,170C1344,170,1248,170,1152,170C1056,170,960,170,864,170C768,170,672,170,576,170C480,170,384,170,288,170C192,170,96,170,48,170L0,170Z"/></svg>